<svg width="271" height="61" viewBox="0 0 271 61" fill="none" xmlns="http://www.w3.org/2000/svg">
<path d="M27.5 14.6841V32.2221" stroke="#201B10" stroke-width="2.5" stroke-miterlimit="10" stroke-linecap="round"/>
<path d="M34.2446 20.8733L28.4623 15.0896C28.2065 14.8365 27.8612 14.6945 27.5013 14.6945C27.1414 14.6945 26.7961 14.8365 26.5403 15.0896L20.755 20.8733M14.0103 30.1979V36.9427C14.0097 37.3858 14.0965 37.8247 14.2658 38.2342C14.4352 38.6437 14.6836 39.0158 14.9969 39.3292C15.3103 39.6425 15.6824 39.8909 16.0919 40.0602C16.5014 40.2296 16.9403 40.3164 17.3834 40.3158H37.6178C38.0608 40.3162 38.4995 40.2292 38.9088 40.0598C39.3182 39.8904 39.6901 39.642 40.0033 39.3286C40.3164 39.0153 40.5648 38.6433 40.734 38.2339C40.9032 37.8245 40.99 37.3857 40.9894 36.9427V30.1979" stroke="#201B10" stroke-width="2.5" stroke-linecap="round" stroke-linejoin="round"/>
<path d="M76.4785 31.2178H79.291C79.1445 32.5654 78.7588 33.7715 78.1338 34.8359C77.5088 35.9004 76.625 36.7451 75.4824 37.3701C74.3398 37.9854 72.9141 38.293 71.2051 38.293C69.9551 38.293 68.8174 38.0586 67.792 37.5898C66.7764 37.1211 65.9023 36.457 65.1699 35.5977C64.4375 34.7285 63.8711 33.6885 63.4707 32.4775C63.0801 31.2568 62.8848 29.8994 62.8848 28.4053V26.2812C62.8848 24.7871 63.0801 23.4346 63.4707 22.2236C63.8711 21.0029 64.4424 19.958 65.1846 19.0889C65.9365 18.2197 66.8398 17.5508 67.8945 17.082C68.9492 16.6133 70.1357 16.3789 71.4541 16.3789C73.0654 16.3789 74.4277 16.6816 75.541 17.2871C76.6543 17.8926 77.5186 18.7324 78.1338 19.8066C78.7588 20.8711 79.1445 22.1064 79.291 23.5127H76.4785C76.3418 22.5166 76.0879 21.6621 75.7168 20.9492C75.3457 20.2266 74.8184 19.6699 74.1348 19.2793C73.4512 18.8887 72.5576 18.6934 71.4541 18.6934C70.5068 18.6934 69.6719 18.874 68.9492 19.2354C68.2363 19.5967 67.6357 20.1094 67.1475 20.7734C66.6689 21.4375 66.3076 22.2334 66.0635 23.1611C65.8193 24.0889 65.6973 25.1191 65.6973 26.252V28.4053C65.6973 29.4502 65.8047 30.4316 66.0195 31.3496C66.2441 32.2676 66.5811 33.0732 67.0303 33.7666C67.4795 34.46 68.0508 35.0068 68.7441 35.4072C69.4375 35.7979 70.2578 35.9932 71.2051 35.9932C72.4062 35.9932 73.3633 35.8027 74.0762 35.4219C74.7891 35.041 75.3262 34.4941 75.6875 33.7812C76.0586 33.0684 76.3223 32.2139 76.4785 31.2178ZM94.5107 32.6094C94.5107 32.1113 94.4326 31.6719 94.2764 31.291C94.1299 30.9004 93.8662 30.5488 93.4854 30.2363C93.1143 29.9238 92.5967 29.626 91.9326 29.3428C91.2783 29.0596 90.4482 28.7715 89.4424 28.4785C88.3877 28.166 87.4355 27.8193 86.5859 27.4385C85.7363 27.0479 85.0088 26.6035 84.4033 26.1055C83.7979 25.6074 83.334 25.0361 83.0117 24.3916C82.6895 23.7471 82.5283 23.0098 82.5283 22.1797C82.5283 21.3496 82.6992 20.583 83.041 19.8799C83.3828 19.1768 83.8711 18.5664 84.5059 18.0488C85.1504 17.5215 85.917 17.1113 86.8057 16.8184C87.6943 16.5254 88.6855 16.3789 89.7793 16.3789C91.3809 16.3789 92.7383 16.6865 93.8516 17.3018C94.9746 17.9072 95.8291 18.7031 96.415 19.6895C97.001 20.666 97.2939 21.7109 97.2939 22.8242H94.4814C94.4814 22.0234 94.3105 21.3154 93.9688 20.7002C93.627 20.0752 93.1094 19.5869 92.416 19.2354C91.7227 18.874 90.8438 18.6934 89.7793 18.6934C88.7734 18.6934 87.9434 18.8447 87.2891 19.1475C86.6348 19.4502 86.1465 19.8604 85.8242 20.3779C85.5117 20.8955 85.3555 21.4863 85.3555 22.1504C85.3555 22.5996 85.4482 23.0098 85.6338 23.3809C85.8291 23.7422 86.127 24.0791 86.5273 24.3916C86.9375 24.7041 87.4551 24.9922 88.0801 25.2559C88.7148 25.5195 89.4717 25.7734 90.3506 26.0176C91.5615 26.3594 92.6064 26.7402 93.4854 27.1602C94.3643 27.5801 95.0869 28.0537 95.6533 28.5811C96.2295 29.0986 96.6543 29.6895 96.9277 30.3535C97.2109 31.0078 97.3525 31.75 97.3525 32.5801C97.3525 33.4492 97.1768 34.2354 96.8252 34.9385C96.4736 35.6416 95.9707 36.2422 95.3164 36.7402C94.6621 37.2383 93.876 37.624 92.958 37.8975C92.0498 38.1611 91.0342 38.293 89.9111 38.293C88.9248 38.293 87.9531 38.1562 86.9961 37.8828C86.0488 37.6094 85.1846 37.1992 84.4033 36.6523C83.6318 36.1055 83.0117 35.4316 82.543 34.6309C82.084 33.8203 81.8545 32.8828 81.8545 31.8184H84.667C84.667 32.5508 84.8086 33.1807 85.0918 33.708C85.375 34.2256 85.7607 34.6553 86.249 34.9971C86.7471 35.3389 87.3086 35.5928 87.9336 35.7588C88.5684 35.915 89.2275 35.9932 89.9111 35.9932C90.8975 35.9932 91.7324 35.8564 92.416 35.583C93.0996 35.3096 93.6172 34.9189 93.9688 34.4111C94.3301 33.9033 94.5107 33.3027 94.5107 32.6094ZM107.841 34.7627L114.125 16.6719H117.187L109.291 38H107.108L107.841 34.7627ZM101.967 16.6719L108.192 34.7627L108.969 38H106.786L98.9053 16.6719H101.967ZM135.395 18.5615L128.334 38H125.448L133.578 16.6719H135.438L135.395 18.5615ZM141.312 38L134.237 18.5615L134.193 16.6719H136.054L144.213 38H141.312ZM140.946 30.1045V32.4189H128.964V30.1045H140.946ZM157.411 29.0205V31.2178H149.032V29.0205H157.411ZM149.604 22.1504V38H146.894V22.1504H149.604ZM159.608 22.1504V38H156.884V22.1504H159.608ZM173.319 35.29V27.1309C173.319 26.5059 173.192 25.9639 172.938 25.5049C172.694 25.0361 172.323 24.6748 171.825 24.4209C171.327 24.167 170.712 24.04 169.979 24.04C169.296 24.04 168.695 24.1572 168.178 24.3916C167.67 24.626 167.27 24.9336 166.977 25.3145C166.693 25.6953 166.552 26.1055 166.552 26.5449H163.842C163.842 25.9785 163.988 25.417 164.281 24.8604C164.574 24.3037 164.994 23.8008 165.541 23.3516C166.098 22.8926 166.762 22.5312 167.533 22.2676C168.314 21.9941 169.184 21.8574 170.141 21.8574C171.293 21.8574 172.309 22.0527 173.188 22.4434C174.076 22.834 174.77 23.4248 175.268 24.2158C175.775 24.9971 176.029 25.9785 176.029 27.1602V34.543C176.029 35.0703 176.073 35.6318 176.161 36.2275C176.259 36.8232 176.4 37.3359 176.586 37.7656V38H173.759C173.622 37.6875 173.515 37.2725 173.437 36.7549C173.358 36.2275 173.319 35.7393 173.319 35.29ZM173.788 28.3906L173.817 30.2949H171.078C170.307 30.2949 169.618 30.3584 169.013 30.4854C168.407 30.6025 167.899 30.7832 167.489 31.0273C167.079 31.2715 166.767 31.5791 166.552 31.9502C166.337 32.3115 166.229 32.7363 166.229 33.2246C166.229 33.7227 166.342 34.1768 166.566 34.5869C166.791 34.9971 167.128 35.3242 167.577 35.5684C168.036 35.8027 168.598 35.9199 169.262 35.9199C170.092 35.9199 170.824 35.7441 171.459 35.3926C172.094 35.041 172.597 34.6113 172.968 34.1035C173.349 33.5957 173.554 33.1025 173.583 32.624L174.74 33.9277C174.672 34.3379 174.486 34.792 174.184 35.29C173.881 35.7881 173.476 36.2666 172.968 36.7256C172.47 37.1748 171.874 37.5508 171.181 37.8535C170.497 38.1465 169.726 38.293 168.866 38.293C167.792 38.293 166.85 38.083 166.039 37.6631C165.238 37.2432 164.613 36.6816 164.164 35.9785C163.725 35.2656 163.505 34.4697 163.505 33.5908C163.505 32.7412 163.671 31.9941 164.003 31.3496C164.335 30.6953 164.813 30.1533 165.438 29.7236C166.063 29.2842 166.815 28.9521 167.694 28.7275C168.573 28.5029 169.555 28.3906 170.639 28.3906H173.788ZM190.883 22.1504V24.3916H183.222V22.1504H190.883ZM193.271 22.1504V38H190.561V22.1504H193.271ZM182.562 22.1504H185.287L184.877 29.7969C184.809 30.9785 184.696 32.0234 184.54 32.9316C184.394 33.8301 184.188 34.6016 183.925 35.2461C183.671 35.8906 183.349 36.418 182.958 36.8281C182.577 37.2285 182.118 37.5264 181.581 37.7217C181.044 37.9072 180.424 38 179.721 38H178.871V35.6123L179.457 35.5684C179.877 35.5391 180.233 35.4414 180.526 35.2754C180.829 35.1094 181.083 34.8652 181.288 34.543C181.493 34.2109 181.659 33.7861 181.786 33.2686C181.923 32.751 182.025 32.1357 182.094 31.4229C182.172 30.71 182.23 29.8799 182.27 28.9326L182.562 22.1504ZM200.565 33.708L207.875 22.1504H210.6V38H207.875V26.4424L200.565 38H197.87V22.1504H200.565V33.708ZM221.41 22.1504V38H218.686V22.1504H221.41ZM226.728 22.1504V24.3477H213.471V22.1504H226.728ZM232.323 33.708L239.633 22.1504H242.357V38H239.633V26.4424L232.323 38H229.628V22.1504H232.323V33.708ZM249.652 22.1504V38H246.942V22.1504H249.652ZM260.053 22.1504L252.538 31.2324H248.744L248.334 28.8594H251.439L256.757 22.1504H260.053ZM257.138 38L251.308 30.8223L253.051 28.8594L260.58 38H257.138Z" fill="#201B10"/>
<rect x="10" y="49" width="251" height="2" rx="1" fill="#201B10"/>
</svg>
