<svg width="283" height="62" viewBox="0 0 283 62" fill="none" xmlns="http://www.w3.org/2000/svg">
<g clip-path="url(#clip0_380_12)">
<path d="M14.375 39.8767C15.5353 39.8767 16.6481 40.3376 17.4686 41.1581C18.2891 41.9786 18.75 43.0914 18.75 44.2517C18.75 45.412 18.2891 46.5248 17.4686 47.3453C16.6481 48.1658 15.5353 48.6267 14.375 48.6267C13.2147 48.6267 12.1019 48.1658 11.2814 47.3453C10.4609 46.5248 10 45.412 10 44.2517C10 43.0914 10.4609 41.9786 11.2814 41.1581C12.1019 40.3376 13.2147 39.8767 14.375 39.8767ZM40.625 39.8767C41.7853 39.8767 42.8981 40.3376 43.7186 41.1581C44.5391 41.9786 45 43.0914 45 44.2517C45 45.412 44.5391 46.5248 43.7186 47.3453C42.8981 48.1658 41.7853 48.6267 40.625 48.6267C39.4647 48.6267 38.3519 48.1658 37.5314 47.3453C36.7109 46.5248 36.25 45.412 36.25 44.2517C36.25 43.0914 36.7109 41.9786 37.5314 41.1581C38.3519 40.3376 39.4647 39.8767 40.625 39.8767ZM14.375 42.0642C13.7948 42.0642 13.2384 42.2947 12.8282 42.7049C12.418 43.1151 12.1875 43.6715 12.1875 44.2517C12.1875 44.8319 12.418 45.3883 12.8282 45.7985C13.2384 46.2087 13.7948 46.4392 14.375 46.4392C14.9552 46.4392 15.5116 46.2087 15.9218 45.7985C16.332 45.3883 16.5625 44.8319 16.5625 44.2517C16.5625 43.6715 16.332 43.1151 15.9218 42.7049C15.5116 42.2947 14.9552 42.0642 14.375 42.0642ZM40.625 42.0642C40.0448 42.0642 39.4884 42.2947 39.0782 42.7049C38.668 43.1151 38.4375 43.6715 38.4375 44.2517C38.4375 44.8319 38.668 45.3883 39.0782 45.7985C39.4884 46.2087 40.0448 46.4392 40.625 46.4392C41.2052 46.4392 41.7616 46.2087 42.1718 45.7985C42.582 45.3883 42.8125 44.8319 42.8125 44.2517C42.8125 43.6715 42.582 43.1151 42.1718 42.7049C41.7616 42.2947 41.2052 42.0642 40.625 42.0642ZM28.5938 23.4705V30.033H35.1562V32.2205H28.5938V38.783H26.4062V32.2205H19.8438V30.033H26.4062V23.4705H28.5938ZM14.375 13.6267C15.5353 13.6267 16.6481 14.0876 17.4686 14.9081C18.2891 15.7286 18.75 16.8414 18.75 18.0017C18.75 19.162 18.2891 20.2748 17.4686 21.0953C16.6481 21.9158 15.5353 22.3767 14.375 22.3767C13.2147 22.3767 12.1019 21.9158 11.2814 21.0953C10.4609 20.2748 10 19.162 10 18.0017C10 16.8414 10.4609 15.7286 11.2814 14.9081C12.1019 14.0876 13.2147 13.6267 14.375 13.6267ZM40.625 13.6267C41.7853 13.6267 42.8981 14.0876 43.7186 14.9081C44.5391 15.7286 45 16.8414 45 18.0017C45 19.162 44.5391 20.2748 43.7186 21.0953C42.8981 21.9158 41.7853 22.3767 40.625 22.3767C39.4647 22.3767 38.3519 21.9158 37.5314 21.0953C36.7109 20.2748 36.25 19.162 36.25 18.0017C36.25 16.8414 36.7109 15.7286 37.5314 14.9081C38.3519 14.0876 39.4647 13.6267 40.625 13.6267ZM40.625 15.8142C40.0448 15.8142 39.4884 16.0447 39.0782 16.4549C38.668 16.8651 38.4375 17.4215 38.4375 18.0017C38.4375 18.5819 38.668 19.1383 39.0782 19.5485C39.4884 19.9587 40.0448 20.1892 40.625 20.1892C41.2052 20.1892 41.7616 19.9587 42.1718 19.5485C42.582 19.1383 42.8125 18.5819 42.8125 18.0017C42.8125 17.4215 42.582 16.8651 42.1718 16.4549C41.7616 16.0447 41.2052 15.8142 40.625 15.8142ZM14.375 15.8142C13.7948 15.8142 13.2384 16.0447 12.8282 16.4549C12.418 16.8651 12.1875 17.4215 12.1875 18.0017C12.1875 18.5819 12.418 19.1383 12.8282 19.5485C13.2384 19.9587 13.7948 20.1892 14.375 20.1892C14.9552 20.1892 15.5116 19.9587 15.9218 19.5485C16.332 19.1383 16.5625 18.5819 16.5625 18.0017C16.5625 17.4215 16.332 16.8651 15.9218 16.4549C15.5116 16.0447 14.9552 15.8142 14.375 15.8142Z" fill="#201B10"/>
<path d="M33.0541 45.4002C33.1656 46.1406 33.3822 46.8461 33.6906 47.5001C31.7121 48.2466 29.6147 48.6283 27.5 48.6267C25.3202 48.6267 23.2344 48.2286 21.3094 47.5001C21.6167 46.8461 21.8344 46.1406 21.9459 45.4002C23.6675 46.0717 25.5411 46.4392 27.5 46.4392C29.4589 46.4392 31.3325 46.0717 33.0541 45.4002ZM43.8734 24.9361C44.6199 26.9146 45.0016 29.0121 45 31.1267C45 33.3066 44.6019 35.3923 43.8734 37.3173C43.2076 37.0054 42.5004 36.791 41.7734 36.6808C42.445 34.9592 42.8125 33.0856 42.8125 31.1267C42.8125 29.1678 42.445 27.2942 41.7734 25.5727C42.5004 25.4624 43.2076 25.248 43.8734 24.9361ZM11.1266 24.9361C11.7806 25.2434 12.4861 25.4611 13.2266 25.5727C12.5387 27.3435 12.1863 29.2269 12.1875 31.1267C12.1875 33.0856 12.555 34.9592 13.2266 36.6808C12.4996 36.791 11.7924 37.0054 11.1266 37.3173C10.3801 35.3388 9.99841 33.2414 10 31.1267C10 28.9469 10.3981 26.8611 11.1266 24.9361ZM27.5 13.6267C29.6798 13.6267 31.7656 14.0248 33.6906 14.7533C33.3787 15.4191 33.1643 16.1263 33.0541 16.8533C31.2832 16.1654 29.3998 15.813 27.5 15.8142C25.5411 15.8142 23.6675 16.1817 21.9459 16.8533C21.8357 16.1263 21.6213 15.4191 21.3094 14.7533C23.2879 14.0068 25.3853 13.6251 27.5 13.6267Z" fill="#201B10"/>
</g>
<path d="M80.5088 34.8445H83.3213C83.1748 36.1921 82.7891 37.3982 82.1641 38.4626C81.5391 39.5271 80.6553 40.3718 79.5127 40.9968C78.3701 41.6121 76.9443 41.9197 75.2354 41.9197C73.9854 41.9197 72.8477 41.6853 71.8223 41.2166C70.8066 40.7478 69.9326 40.0837 69.2002 39.2244C68.4678 38.3552 67.9014 37.3152 67.501 36.1042C67.1104 34.8835 66.915 33.5261 66.915 32.032V29.908C66.915 28.4138 67.1104 27.0613 67.501 25.8503C67.9014 24.6296 68.4727 23.5847 69.2148 22.7156C69.9668 21.8464 70.8701 21.1775 71.9248 20.7087C72.9795 20.24 74.166 20.0056 75.4844 20.0056C77.0957 20.0056 78.458 20.3083 79.5713 20.9138C80.6846 21.5193 81.5488 22.3591 82.1641 23.4333C82.7891 24.4978 83.1748 25.7332 83.3213 27.1394H80.5088C80.3721 26.1433 80.1182 25.2888 79.7471 24.5759C79.376 23.8533 78.8486 23.2966 78.165 22.906C77.4814 22.5154 76.5879 22.3201 75.4844 22.3201C74.5371 22.3201 73.7021 22.5007 72.9795 22.8621C72.2666 23.2234 71.666 23.7361 71.1777 24.4001C70.6992 25.0642 70.3379 25.8601 70.0938 26.7878C69.8496 27.7156 69.7275 28.7458 69.7275 29.8787V32.032C69.7275 33.0769 69.835 34.0583 70.0498 34.9763C70.2744 35.8943 70.6113 36.7 71.0605 37.3933C71.5098 38.0867 72.0811 38.6335 72.7744 39.0339C73.4678 39.4246 74.2881 39.6199 75.2354 39.6199C76.4365 39.6199 77.3936 39.4294 78.1064 39.0486C78.8193 38.6677 79.3564 38.1208 79.7178 37.408C80.0889 36.6951 80.3525 35.8406 80.5088 34.8445ZM98.541 36.2361C98.541 35.738 98.4629 35.2986 98.3066 34.9177C98.1602 34.5271 97.8965 34.1755 97.5156 33.863C97.1445 33.5505 96.627 33.2527 95.9629 32.9695C95.3086 32.6863 94.4785 32.3982 93.4727 32.1052C92.418 31.7927 91.4658 31.446 90.6162 31.0652C89.7666 30.6746 89.0391 30.2302 88.4336 29.7322C87.8281 29.2341 87.3643 28.6628 87.042 28.0183C86.7197 27.3738 86.5586 26.6365 86.5586 25.8064C86.5586 24.9763 86.7295 24.2097 87.0713 23.5066C87.4131 22.8035 87.9014 22.1931 88.5361 21.6755C89.1807 21.1482 89.9473 20.738 90.8359 20.4451C91.7246 20.1521 92.7158 20.0056 93.8096 20.0056C95.4111 20.0056 96.7686 20.3132 97.8818 20.9285C99.0049 21.5339 99.8594 22.3298 100.445 23.3162C101.031 24.2927 101.324 25.3376 101.324 26.4509H98.5117C98.5117 25.6501 98.3408 24.9421 97.999 24.3269C97.6572 23.7019 97.1396 23.2136 96.4463 22.8621C95.7529 22.5007 94.874 22.3201 93.8096 22.3201C92.8037 22.3201 91.9736 22.4714 91.3193 22.7742C90.665 23.0769 90.1768 23.4871 89.8545 24.0046C89.542 24.5222 89.3857 25.113 89.3857 25.7771C89.3857 26.2263 89.4785 26.6365 89.6641 27.0076C89.8594 27.3689 90.1572 27.7058 90.5576 28.0183C90.9678 28.3308 91.4854 28.6189 92.1104 28.8826C92.7451 29.1462 93.502 29.4001 94.3809 29.6443C95.5918 29.9861 96.6367 30.3669 97.5156 30.7869C98.3945 31.2068 99.1172 31.6804 99.6836 32.2078C100.26 32.7253 100.685 33.3162 100.958 33.9802C101.241 34.6345 101.383 35.3767 101.383 36.2068C101.383 37.0759 101.207 37.8621 100.855 38.5652C100.504 39.2683 100.001 39.8689 99.3467 40.3669C98.6924 40.865 97.9062 41.2507 96.9883 41.5242C96.0801 41.7878 95.0645 41.9197 93.9414 41.9197C92.9551 41.9197 91.9834 41.783 91.0264 41.5095C90.0791 41.2361 89.2148 40.8259 88.4336 40.2791C87.6621 39.7322 87.042 39.0583 86.5732 38.2576C86.1143 37.447 85.8848 36.5095 85.8848 35.4451H88.6973C88.6973 36.1775 88.8389 36.8074 89.1221 37.3347C89.4053 37.8523 89.791 38.282 90.2793 38.6238C90.7773 38.9656 91.3389 39.2195 91.9639 39.3855C92.5986 39.5417 93.2578 39.6199 93.9414 39.6199C94.9277 39.6199 95.7627 39.4832 96.4463 39.2097C97.1299 38.9363 97.6475 38.5457 97.999 38.0378C98.3604 37.53 98.541 36.9294 98.541 36.2361ZM111.871 38.3894L118.155 20.2986H121.217L113.321 41.6267H111.139L111.871 38.3894ZM105.997 20.2986L112.223 38.3894L112.999 41.6267H110.816L102.936 20.2986H105.997ZM144.757 20.2986V22.613H134.474V41.6267H131.661V20.2986H144.757ZM151.642 41.9197C150.538 41.9197 149.537 41.7341 148.639 41.363C147.75 40.9822 146.983 40.45 146.339 39.7664C145.704 39.0828 145.216 38.2722 144.874 37.3347C144.532 36.3972 144.361 35.3718 144.361 34.2585V33.6433C144.361 32.3542 144.552 31.2068 144.933 30.2009C145.313 29.1853 145.831 28.3259 146.485 27.6228C147.14 26.9197 147.882 26.3875 148.712 26.0261C149.542 25.6648 150.401 25.4841 151.29 25.4841C152.423 25.4841 153.399 25.6794 154.22 26.0701C155.05 26.4607 155.729 27.0076 156.256 27.7107C156.783 28.4041 157.174 29.2244 157.428 30.1716C157.682 31.1091 157.809 32.1345 157.809 33.2478V34.4636H145.973V32.2517H155.099V32.0466C155.06 31.3435 154.913 30.6599 154.659 29.9958C154.415 29.3318 154.024 28.7849 153.487 28.3552C152.95 27.9255 152.218 27.7107 151.29 27.7107C150.675 27.7107 150.108 27.8425 149.591 28.1062C149.073 28.3601 148.629 28.741 148.258 29.2488C147.887 29.7566 147.599 30.3767 147.394 31.1091C147.188 31.8416 147.086 32.6863 147.086 33.6433V34.2585C147.086 35.0105 147.188 35.7185 147.394 36.3826C147.608 37.0369 147.916 37.613 148.316 38.1111C148.727 38.6091 149.22 38.9998 149.796 39.283C150.382 39.5662 151.046 39.7078 151.788 39.7078C152.745 39.7078 153.556 39.5125 154.22 39.1218C154.884 38.7312 155.465 38.2087 155.963 37.5544L157.604 38.8582C157.262 39.3757 156.827 39.8689 156.3 40.3376C155.772 40.8064 155.123 41.1873 154.352 41.4802C153.59 41.7732 152.687 41.9197 151.642 41.9197ZM171.725 32.6472V34.8445H163.346V32.6472H171.725ZM163.917 25.7771V41.6267H161.207V25.7771H163.917ZM173.922 25.7771V41.6267H171.197V25.7771H173.922ZM184.864 41.9197C183.761 41.9197 182.76 41.7341 181.861 41.363C180.973 40.9822 180.206 40.45 179.562 39.7664C178.927 39.0828 178.438 38.2722 178.097 37.3347C177.755 36.3972 177.584 35.3718 177.584 34.2585V33.6433C177.584 32.3542 177.774 31.2068 178.155 30.2009C178.536 29.1853 179.054 28.3259 179.708 27.6228C180.362 26.9197 181.104 26.3875 181.935 26.0261C182.765 25.6648 183.624 25.4841 184.513 25.4841C185.646 25.4841 186.622 25.6794 187.442 26.0701C188.272 26.4607 188.951 27.0076 189.479 27.7107C190.006 28.4041 190.396 29.2244 190.65 30.1716C190.904 31.1091 191.031 32.1345 191.031 33.2478V34.4636H179.195V32.2517H188.321V32.0466C188.282 31.3435 188.136 30.6599 187.882 29.9958C187.638 29.3318 187.247 28.7849 186.71 28.3552C186.173 27.9255 185.44 27.7107 184.513 27.7107C183.897 27.7107 183.331 27.8425 182.813 28.1062C182.296 28.3601 181.852 28.741 181.48 29.2488C181.109 29.7566 180.821 30.3767 180.616 31.1091C180.411 31.8416 180.309 32.6863 180.309 33.6433V34.2585C180.309 35.0105 180.411 35.7185 180.616 36.3826C180.831 37.0369 181.139 37.613 181.539 38.1111C181.949 38.6091 182.442 38.9998 183.019 39.283C183.604 39.5662 184.269 39.7078 185.011 39.7078C185.968 39.7078 186.778 39.5125 187.442 39.1218C188.106 38.7312 188.688 38.2087 189.186 37.5544L190.826 38.8582C190.484 39.3757 190.05 39.8689 189.522 40.3376C188.995 40.8064 188.346 41.1873 187.574 41.4802C186.812 41.7732 185.909 41.9197 184.864 41.9197ZM196.905 28.824V47.7205H194.181V25.7771H196.671L196.905 28.824ZM207.584 33.5701V33.8777C207.584 35.03 207.447 36.0994 207.174 37.0857C206.9 38.0623 206.5 38.9119 205.973 39.6345C205.455 40.3572 204.815 40.9187 204.054 41.3191C203.292 41.7195 202.418 41.9197 201.432 41.9197C200.426 41.9197 199.537 41.7537 198.766 41.4216C197.994 41.0896 197.34 40.6062 196.803 39.9714C196.266 39.3367 195.836 38.575 195.514 37.6863C195.201 36.7976 194.986 35.7966 194.869 34.6833V33.0427C194.986 31.8708 195.206 30.821 195.528 29.8933C195.851 28.9656 196.275 28.1746 196.803 27.5203C197.34 26.8562 197.989 26.3533 198.751 26.0115C199.513 25.6599 200.392 25.4841 201.388 25.4841C202.384 25.4841 203.268 25.6794 204.039 26.0701C204.811 26.4509 205.46 26.9978 205.987 27.7107C206.515 28.4236 206.91 29.2781 207.174 30.2742C207.447 31.2605 207.584 32.3591 207.584 33.5701ZM204.859 33.8777V33.5701C204.859 32.7791 204.776 32.0369 204.61 31.3435C204.444 30.6404 204.186 30.0251 203.834 29.4978C203.492 28.9607 203.053 28.5408 202.516 28.238C201.979 27.9255 201.339 27.7693 200.597 27.7693C199.913 27.7693 199.317 27.8865 198.81 28.1208C198.312 28.3552 197.887 28.6726 197.535 29.073C197.184 29.4636 196.896 29.9128 196.671 30.4207C196.456 30.9187 196.295 31.4363 196.188 31.9734V35.7673C196.383 36.4509 196.656 37.0955 197.008 37.7009C197.359 38.2966 197.828 38.78 198.414 39.1511C199 39.5125 199.737 39.6931 200.626 39.6931C201.358 39.6931 201.988 39.5417 202.516 39.239C203.053 38.9265 203.492 38.5017 203.834 37.9646C204.186 37.4275 204.444 36.8123 204.61 36.1189C204.776 35.4158 204.859 34.6687 204.859 33.8777ZM220.387 38.9167V30.7576C220.387 30.1326 220.26 29.5906 220.006 29.1316C219.762 28.6628 219.391 28.3015 218.893 28.0476C218.395 27.7937 217.779 27.6667 217.047 27.6667C216.363 27.6667 215.763 27.7839 215.245 28.0183C214.737 28.2527 214.337 28.5603 214.044 28.9412C213.761 29.322 213.619 29.7322 213.619 30.1716H210.909C210.909 29.6052 211.056 29.0437 211.349 28.4871C211.642 27.9304 212.062 27.4275 212.608 26.9783C213.165 26.5193 213.829 26.158 214.601 25.8943C215.382 25.6208 216.251 25.4841 217.208 25.4841C218.36 25.4841 219.376 25.6794 220.255 26.0701C221.144 26.4607 221.837 27.0515 222.335 27.8425C222.843 28.6238 223.097 29.6052 223.097 30.7869V38.1697C223.097 38.697 223.141 39.2585 223.229 39.8542C223.326 40.45 223.468 40.9626 223.653 41.3923V41.6267H220.826C220.689 41.3142 220.582 40.8992 220.504 40.3816C220.426 39.8542 220.387 39.366 220.387 38.9167ZM220.855 32.0173L220.885 33.9216H218.146C217.374 33.9216 216.686 33.9851 216.08 34.1121C215.475 34.2292 214.967 34.4099 214.557 34.6541C214.146 34.8982 213.834 35.2058 213.619 35.5769C213.404 35.9382 213.297 36.363 213.297 36.8513C213.297 37.3494 213.409 37.8035 213.634 38.2136C213.858 38.6238 214.195 38.9509 214.645 39.1951C215.104 39.4294 215.665 39.5466 216.329 39.5466C217.159 39.5466 217.892 39.3708 218.526 39.0193C219.161 38.6677 219.664 38.238 220.035 37.7302C220.416 37.2224 220.621 36.7292 220.65 36.2507L221.808 37.5544C221.739 37.9646 221.554 38.4187 221.251 38.9167C220.948 39.4148 220.543 39.8933 220.035 40.3523C219.537 40.8015 218.941 41.1775 218.248 41.4802C217.564 41.7732 216.793 41.9197 215.934 41.9197C214.859 41.9197 213.917 41.7097 213.106 41.2898C212.306 40.8699 211.681 40.3083 211.231 39.6052C210.792 38.8923 210.572 38.0964 210.572 37.2175C210.572 36.3679 210.738 35.6208 211.07 34.9763C211.402 34.322 211.881 33.78 212.506 33.3503C213.131 32.9109 213.883 32.5789 214.762 32.3542C215.641 32.1296 216.622 32.0173 217.706 32.0173H220.855ZM233.585 25.7771V41.6267H230.86V25.7771H233.585ZM238.902 25.7771V27.9744H225.646V25.7771H238.902ZM240.235 33.8777V33.5408C240.235 32.3982 240.401 31.3386 240.733 30.3621C241.065 29.3757 241.544 28.5212 242.169 27.7986C242.794 27.0662 243.551 26.4998 244.439 26.0994C245.328 25.6892 246.324 25.4841 247.428 25.4841C248.541 25.4841 249.542 25.6892 250.431 26.0994C251.329 26.4998 252.091 27.0662 252.716 27.7986C253.351 28.5212 253.834 29.3757 254.166 30.3621C254.498 31.3386 254.664 32.3982 254.664 33.5408V33.8777C254.664 35.0203 254.498 36.0798 254.166 37.0564C253.834 38.033 253.351 38.8875 252.716 39.6199C252.091 40.3425 251.334 40.9089 250.445 41.3191C249.566 41.7195 248.57 41.9197 247.457 41.9197C246.344 41.9197 245.343 41.7195 244.454 41.3191C243.565 40.9089 242.804 40.3425 242.169 39.6199C241.544 38.8875 241.065 38.033 240.733 37.0564C240.401 36.0798 240.235 35.0203 240.235 33.8777ZM242.945 33.5408V33.8777C242.945 34.6687 243.038 35.4158 243.224 36.1189C243.409 36.8123 243.688 37.4275 244.059 37.9646C244.439 38.5017 244.913 38.9265 245.479 39.239C246.046 39.5417 246.705 39.6931 247.457 39.6931C248.199 39.6931 248.849 39.5417 249.405 39.239C249.972 38.9265 250.44 38.5017 250.812 37.9646C251.183 37.4275 251.461 36.8123 251.646 36.1189C251.842 35.4158 251.939 34.6687 251.939 33.8777V33.5408C251.939 32.7595 251.842 32.0222 251.646 31.3289C251.461 30.6257 251.178 30.0056 250.797 29.4685C250.426 28.9216 249.957 28.4919 249.391 28.1794C248.834 27.8669 248.18 27.7107 247.428 27.7107C246.686 27.7107 246.031 27.8669 245.465 28.1794C244.908 28.4919 244.439 28.9216 244.059 29.4685C243.688 30.0056 243.409 30.6257 243.224 31.3289C243.038 32.0222 242.945 32.7595 242.945 33.5408ZM260.772 28.824V47.7205H258.048V25.7771H260.538L260.772 28.824ZM271.451 33.5701V33.8777C271.451 35.03 271.314 36.0994 271.041 37.0857C270.768 38.0623 270.367 38.9119 269.84 39.6345C269.322 40.3572 268.683 40.9187 267.921 41.3191C267.159 41.7195 266.285 41.9197 265.299 41.9197C264.293 41.9197 263.404 41.7537 262.633 41.4216C261.861 41.0896 261.207 40.6062 260.67 39.9714C260.133 39.3367 259.703 38.575 259.381 37.6863C259.068 36.7976 258.854 35.7966 258.736 34.6833V33.0427C258.854 31.8708 259.073 30.821 259.396 29.8933C259.718 28.9656 260.143 28.1746 260.67 27.5203C261.207 26.8562 261.856 26.3533 262.618 26.0115C263.38 25.6599 264.259 25.4841 265.255 25.4841C266.251 25.4841 267.135 25.6794 267.906 26.0701C268.678 26.4509 269.327 26.9978 269.854 27.7107C270.382 28.4236 270.777 29.2781 271.041 30.2742C271.314 31.2605 271.451 32.3591 271.451 33.5701ZM268.727 33.8777V33.5701C268.727 32.7791 268.644 32.0369 268.478 31.3435C268.312 30.6404 268.053 30.0251 267.701 29.4978C267.359 28.9607 266.92 28.5408 266.383 28.238C265.846 27.9255 265.206 27.7693 264.464 27.7693C263.78 27.7693 263.185 27.8865 262.677 28.1208C262.179 28.3552 261.754 28.6726 261.402 29.073C261.051 29.4636 260.763 29.9128 260.538 30.4207C260.323 30.9187 260.162 31.4363 260.055 31.9734V35.7673C260.25 36.4509 260.523 37.0955 260.875 37.7009C261.227 38.2966 261.695 38.78 262.281 39.1511C262.867 39.5125 263.604 39.6931 264.493 39.6931C265.226 39.6931 265.855 39.5417 266.383 39.239C266.92 38.9265 267.359 38.5017 267.701 37.9646C268.053 37.4275 268.312 36.8123 268.478 36.1189C268.644 35.4158 268.727 34.6687 268.727 33.8777Z" fill="#201B10"/>
<defs>
<clipPath id="clip0_380_12">
<rect width="35" height="35" fill="white" transform="translate(10 13.6267)"/>
</clipPath>
</defs>
</svg>
