<svg width="280" height="61" viewBox="0 0 280 61" fill="none" xmlns="http://www.w3.org/2000/svg">
<g clip-path="url(#clip0_12_580)">
<path d="M14.375 36.25C15.5353 36.25 16.6481 36.7109 17.4686 37.5314C18.2891 38.3519 18.75 39.4647 18.75 40.625C18.75 41.7853 18.2891 42.8981 17.4686 43.7186C16.6481 44.5391 15.5353 45 14.375 45C13.2147 45 12.1019 44.5391 11.2814 43.7186C10.4609 42.8981 10 41.7853 10 40.625C10 39.4647 10.4609 38.3519 11.2814 37.5314C12.1019 36.7109 13.2147 36.25 14.375 36.25ZM40.625 36.25C41.7853 36.25 42.8981 36.7109 43.7186 37.5314C44.5391 38.3519 45 39.4647 45 40.625C45 41.7853 44.5391 42.8981 43.7186 43.7186C42.8981 44.5391 41.7853 45 40.625 45C39.4647 45 38.3519 44.5391 37.5314 43.7186C36.7109 42.8981 36.25 41.7853 36.25 40.625C36.25 39.4647 36.7109 38.3519 37.5314 37.5314C38.3519 36.7109 39.4647 36.25 40.625 36.25ZM14.375 38.4375C13.7948 38.4375 13.2384 38.668 12.8282 39.0782C12.418 39.4884 12.1875 40.0448 12.1875 40.625C12.1875 41.2052 12.418 41.7616 12.8282 42.1718C13.2384 42.582 13.7948 42.8125 14.375 42.8125C14.9552 42.8125 15.5116 42.582 15.9218 42.1718C16.332 41.7616 16.5625 41.2052 16.5625 40.625C16.5625 40.0448 16.332 39.4884 15.9218 39.0782C15.5116 38.668 14.9552 38.4375 14.375 38.4375ZM40.625 38.4375C40.0448 38.4375 39.4884 38.668 39.0782 39.0782C38.668 39.4884 38.4375 40.0448 38.4375 40.625C38.4375 41.2052 38.668 41.7616 39.0782 42.1718C39.4884 42.582 40.0448 42.8125 40.625 42.8125C41.2052 42.8125 41.7616 42.582 42.1718 42.1718C42.582 41.7616 42.8125 41.2052 42.8125 40.625C42.8125 40.0448 42.582 39.4884 42.1718 39.0782C41.7616 38.668 41.2052 38.4375 40.625 38.4375ZM28.5938 19.8438V26.4062H35.1562V28.5938H28.5938V35.1562H26.4062V28.5938H19.8438V26.4062H26.4062V19.8438H28.5938ZM14.375 10C15.5353 10 16.6481 10.4609 17.4686 11.2814C18.2891 12.1019 18.75 13.2147 18.75 14.375C18.75 15.5353 18.2891 16.6481 17.4686 17.4686C16.6481 18.2891 15.5353 18.75 14.375 18.75C13.2147 18.75 12.1019 18.2891 11.2814 17.4686C10.4609 16.6481 10 15.5353 10 14.375C10 13.2147 10.4609 12.1019 11.2814 11.2814C12.1019 10.4609 13.2147 10 14.375 10ZM40.625 10C41.7853 10 42.8981 10.4609 43.7186 11.2814C44.5391 12.1019 45 13.2147 45 14.375C45 15.5353 44.5391 16.6481 43.7186 17.4686C42.8981 18.2891 41.7853 18.75 40.625 18.75C39.4647 18.75 38.3519 18.2891 37.5314 17.4686C36.7109 16.6481 36.25 15.5353 36.25 14.375C36.25 13.2147 36.7109 12.1019 37.5314 11.2814C38.3519 10.4609 39.4647 10 40.625 10ZM40.625 12.1875C40.0448 12.1875 39.4884 12.418 39.0782 12.8282C38.668 13.2384 38.4375 13.7948 38.4375 14.375C38.4375 14.9552 38.668 15.5116 39.0782 15.9218C39.4884 16.332 40.0448 16.5625 40.625 16.5625C41.2052 16.5625 41.7616 16.332 42.1718 15.9218C42.582 15.5116 42.8125 14.9552 42.8125 14.375C42.8125 13.7948 42.582 13.2384 42.1718 12.8282C41.7616 12.418 41.2052 12.1875 40.625 12.1875ZM14.375 12.1875C13.7948 12.1875 13.2384 12.418 12.8282 12.8282C12.418 13.2384 12.1875 13.7948 12.1875 14.375C12.1875 14.9552 12.418 15.5116 12.8282 15.9218C13.2384 16.332 13.7948 16.5625 14.375 16.5625C14.9552 16.5625 15.5116 16.332 15.9218 15.9218C16.332 15.5116 16.5625 14.9552 16.5625 14.375C16.5625 13.7948 16.332 13.2384 15.9218 12.8282C15.5116 12.418 14.9552 12.1875 14.375 12.1875Z" fill="#201B10"/>
<path d="M33.0541 41.7734C33.1656 42.5139 33.3822 43.2194 33.6906 43.8734C31.7121 44.6199 29.6147 45.0016 27.5 45C25.3202 45 23.2344 44.6019 21.3094 43.8734C21.6167 43.2194 21.8344 42.5139 21.9459 41.7734C23.6675 42.445 25.5411 42.8125 27.5 42.8125C29.4589 42.8125 31.3325 42.445 33.0541 41.7734ZM43.8734 21.3094C44.6199 23.2879 45.0016 25.3853 45 27.5C45 29.6798 44.6019 31.7656 43.8734 33.6906C43.2076 33.3787 42.5004 33.1643 41.7734 33.0541C42.445 31.3325 42.8125 29.4589 42.8125 27.5C42.8125 25.5411 42.445 23.6675 41.7734 21.9459C42.5004 21.8357 43.2076 21.6213 43.8734 21.3094ZM11.1266 21.3094C11.7806 21.6167 12.4861 21.8344 13.2266 21.9459C12.5387 23.7168 12.1863 25.6002 12.1875 27.5C12.1875 29.4589 12.555 31.3325 13.2266 33.0541C12.4996 33.1643 11.7924 33.3787 11.1266 33.6906C10.3801 31.7121 9.99841 29.6147 10 27.5C10 25.3202 10.3981 23.2344 11.1266 21.3094ZM27.5 10C29.6798 10 31.7656 10.3981 33.6906 11.1266C33.3787 11.7924 33.1643 12.4996 33.0541 13.2266C31.2832 12.5387 29.3998 12.1863 27.5 12.1875C25.5411 12.1875 23.6675 12.555 21.9459 13.2266C21.8357 12.4996 21.6213 11.7924 21.3094 11.1266C23.2879 10.3801 25.3853 9.99841 27.5 10Z" fill="#201B10"/>
</g>
<path d="M77.5088 31.2178H80.3213C80.1748 32.5654 79.7891 33.7715 79.1641 34.8359C78.5391 35.9004 77.6553 36.7451 76.5127 37.3701C75.3701 37.9854 73.9443 38.293 72.2354 38.293C70.9854 38.293 69.8477 38.0586 68.8223 37.5898C67.8066 37.1211 66.9326 36.457 66.2002 35.5977C65.4678 34.7285 64.9014 33.6885 64.501 32.4775C64.1104 31.2568 63.915 29.8994 63.915 28.4053V26.2812C63.915 24.7871 64.1104 23.4346 64.501 22.2236C64.9014 21.0029 65.4727 19.958 66.2148 19.0889C66.9668 18.2197 67.8701 17.5508 68.9248 17.082C69.9795 16.6133 71.166 16.3789 72.4844 16.3789C74.0957 16.3789 75.458 16.6816 76.5713 17.2871C77.6846 17.8926 78.5488 18.7324 79.1641 19.8066C79.7891 20.8711 80.1748 22.1064 80.3213 23.5127H77.5088C77.3721 22.5166 77.1182 21.6621 76.7471 20.9492C76.376 20.2266 75.8486 19.6699 75.165 19.2793C74.4814 18.8887 73.5879 18.6934 72.4844 18.6934C71.5371 18.6934 70.7021 18.874 69.9795 19.2354C69.2666 19.5967 68.666 20.1094 68.1777 20.7734C67.6992 21.4375 67.3379 22.2334 67.0938 23.1611C66.8496 24.0889 66.7275 25.1191 66.7275 26.252V28.4053C66.7275 29.4502 66.835 30.4316 67.0498 31.3496C67.2744 32.2676 67.6113 33.0732 68.0605 33.7666C68.5098 34.46 69.0811 35.0068 69.7744 35.4072C70.4678 35.7979 71.2881 35.9932 72.2354 35.9932C73.4365 35.9932 74.3936 35.8027 75.1064 35.4219C75.8193 35.041 76.3564 34.4941 76.7178 33.7812C77.0889 33.0684 77.3525 32.2139 77.5088 31.2178ZM95.541 32.6094C95.541 32.1113 95.4629 31.6719 95.3066 31.291C95.1602 30.9004 94.8965 30.5488 94.5156 30.2363C94.1445 29.9238 93.627 29.626 92.9629 29.3428C92.3086 29.0596 91.4785 28.7715 90.4727 28.4785C89.418 28.166 88.4658 27.8193 87.6162 27.4385C86.7666 27.0479 86.0391 26.6035 85.4336 26.1055C84.8281 25.6074 84.3643 25.0361 84.042 24.3916C83.7197 23.7471 83.5586 23.0098 83.5586 22.1797C83.5586 21.3496 83.7295 20.583 84.0713 19.8799C84.4131 19.1768 84.9014 18.5664 85.5361 18.0488C86.1807 17.5215 86.9473 17.1113 87.8359 16.8184C88.7246 16.5254 89.7158 16.3789 90.8096 16.3789C92.4111 16.3789 93.7686 16.6865 94.8818 17.3018C96.0049 17.9072 96.8594 18.7031 97.4453 19.6895C98.0312 20.666 98.3242 21.7109 98.3242 22.8242H95.5117C95.5117 22.0234 95.3408 21.3154 94.999 20.7002C94.6572 20.0752 94.1396 19.5869 93.4463 19.2354C92.7529 18.874 91.874 18.6934 90.8096 18.6934C89.8037 18.6934 88.9736 18.8447 88.3193 19.1475C87.665 19.4502 87.1768 19.8604 86.8545 20.3779C86.542 20.8955 86.3857 21.4863 86.3857 22.1504C86.3857 22.5996 86.4785 23.0098 86.6641 23.3809C86.8594 23.7422 87.1572 24.0791 87.5576 24.3916C87.9678 24.7041 88.4854 24.9922 89.1104 25.2559C89.7451 25.5195 90.502 25.7734 91.3809 26.0176C92.5918 26.3594 93.6367 26.7402 94.5156 27.1602C95.3945 27.5801 96.1172 28.0537 96.6836 28.5811C97.2598 29.0986 97.6846 29.6895 97.958 30.3535C98.2412 31.0078 98.3828 31.75 98.3828 32.5801C98.3828 33.4492 98.207 34.2354 97.8555 34.9385C97.5039 35.6416 97.001 36.2422 96.3467 36.7402C95.6924 37.2383 94.9062 37.624 93.9883 37.8975C93.0801 38.1611 92.0645 38.293 90.9414 38.293C89.9551 38.293 88.9834 38.1562 88.0264 37.8828C87.0791 37.6094 86.2148 37.1992 85.4336 36.6523C84.6621 36.1055 84.042 35.4316 83.5732 34.6309C83.1143 33.8203 82.8848 32.8828 82.8848 31.8184H85.6973C85.6973 32.5508 85.8389 33.1807 86.1221 33.708C86.4053 34.2256 86.791 34.6553 87.2793 34.9971C87.7773 35.3389 88.3389 35.5928 88.9639 35.7588C89.5986 35.915 90.2578 35.9932 90.9414 35.9932C91.9277 35.9932 92.7627 35.8564 93.4463 35.583C94.1299 35.3096 94.6475 34.9189 94.999 34.4111C95.3604 33.9033 95.541 33.3027 95.541 32.6094ZM108.871 34.7627L115.155 16.6719H118.217L110.321 38H108.139L108.871 34.7627ZM102.997 16.6719L109.223 34.7627L109.999 38H107.816L99.9355 16.6719H102.997ZM141.757 16.6719V18.9863H131.474V38H128.661V16.6719H141.757ZM148.642 38.293C147.538 38.293 146.537 38.1074 145.639 37.7363C144.75 37.3555 143.983 36.8232 143.339 36.1396C142.704 35.4561 142.216 34.6455 141.874 33.708C141.532 32.7705 141.361 31.7451 141.361 30.6318V30.0166C141.361 28.7275 141.552 27.5801 141.933 26.5742C142.313 25.5586 142.831 24.6992 143.485 23.9961C144.14 23.293 144.882 22.7607 145.712 22.3994C146.542 22.0381 147.401 21.8574 148.29 21.8574C149.423 21.8574 150.399 22.0527 151.22 22.4434C152.05 22.834 152.729 23.3809 153.256 24.084C153.783 24.7773 154.174 25.5977 154.428 26.5449C154.682 27.4824 154.809 28.5078 154.809 29.6211V30.8369H142.973V28.625H152.099V28.4199C152.06 27.7168 151.913 27.0332 151.659 26.3691C151.415 25.7051 151.024 25.1582 150.487 24.7285C149.95 24.2988 149.218 24.084 148.29 24.084C147.675 24.084 147.108 24.2158 146.591 24.4795C146.073 24.7334 145.629 25.1143 145.258 25.6221C144.887 26.1299 144.599 26.75 144.394 27.4824C144.188 28.2148 144.086 29.0596 144.086 30.0166V30.6318C144.086 31.3838 144.188 32.0918 144.394 32.7559C144.608 33.4102 144.916 33.9863 145.316 34.4844C145.727 34.9824 146.22 35.373 146.796 35.6562C147.382 35.9395 148.046 36.0811 148.788 36.0811C149.745 36.0811 150.556 35.8857 151.22 35.4951C151.884 35.1045 152.465 34.582 152.963 33.9277L154.604 35.2314C154.262 35.749 153.827 36.2422 153.3 36.7109C152.772 37.1797 152.123 37.5605 151.352 37.8535C150.59 38.1465 149.687 38.293 148.642 38.293ZM168.725 29.0205V31.2178H160.346V29.0205H168.725ZM160.917 22.1504V38H158.207V22.1504H160.917ZM170.922 22.1504V38H168.197V22.1504H170.922ZM181.864 38.293C180.761 38.293 179.76 38.1074 178.861 37.7363C177.973 37.3555 177.206 36.8232 176.562 36.1396C175.927 35.4561 175.438 34.6455 175.097 33.708C174.755 32.7705 174.584 31.7451 174.584 30.6318V30.0166C174.584 28.7275 174.774 27.5801 175.155 26.5742C175.536 25.5586 176.054 24.6992 176.708 23.9961C177.362 23.293 178.104 22.7607 178.935 22.3994C179.765 22.0381 180.624 21.8574 181.513 21.8574C182.646 21.8574 183.622 22.0527 184.442 22.4434C185.272 22.834 185.951 23.3809 186.479 24.084C187.006 24.7773 187.396 25.5977 187.65 26.5449C187.904 27.4824 188.031 28.5078 188.031 29.6211V30.8369H176.195V28.625H185.321V28.4199C185.282 27.7168 185.136 27.0332 184.882 26.3691C184.638 25.7051 184.247 25.1582 183.71 24.7285C183.173 24.2988 182.44 24.084 181.513 24.084C180.897 24.084 180.331 24.2158 179.813 24.4795C179.296 24.7334 178.852 25.1143 178.48 25.6221C178.109 26.1299 177.821 26.75 177.616 27.4824C177.411 28.2148 177.309 29.0596 177.309 30.0166V30.6318C177.309 31.3838 177.411 32.0918 177.616 32.7559C177.831 33.4102 178.139 33.9863 178.539 34.4844C178.949 34.9824 179.442 35.373 180.019 35.6562C180.604 35.9395 181.269 36.0811 182.011 36.0811C182.968 36.0811 183.778 35.8857 184.442 35.4951C185.106 35.1045 185.688 34.582 186.186 33.9277L187.826 35.2314C187.484 35.749 187.05 36.2422 186.522 36.7109C185.995 37.1797 185.346 37.5605 184.574 37.8535C183.812 38.1465 182.909 38.293 181.864 38.293ZM193.905 25.1973V44.0938H191.181V22.1504H193.671L193.905 25.1973ZM204.584 29.9434V30.251C204.584 31.4033 204.447 32.4727 204.174 33.459C203.9 34.4355 203.5 35.2852 202.973 36.0078C202.455 36.7305 201.815 37.292 201.054 37.6924C200.292 38.0928 199.418 38.293 198.432 38.293C197.426 38.293 196.537 38.127 195.766 37.7949C194.994 37.4629 194.34 36.9795 193.803 36.3447C193.266 35.71 192.836 34.9482 192.514 34.0596C192.201 33.1709 191.986 32.1699 191.869 31.0566V29.416C191.986 28.2441 192.206 27.1943 192.528 26.2666C192.851 25.3389 193.275 24.5479 193.803 23.8936C194.34 23.2295 194.989 22.7266 195.751 22.3848C196.513 22.0332 197.392 21.8574 198.388 21.8574C199.384 21.8574 200.268 22.0527 201.039 22.4434C201.811 22.8242 202.46 23.3711 202.987 24.084C203.515 24.7969 203.91 25.6514 204.174 26.6475C204.447 27.6338 204.584 28.7324 204.584 29.9434ZM201.859 30.251V29.9434C201.859 29.1523 201.776 28.4102 201.61 27.7168C201.444 27.0137 201.186 26.3984 200.834 25.8711C200.492 25.334 200.053 24.9141 199.516 24.6113C198.979 24.2988 198.339 24.1426 197.597 24.1426C196.913 24.1426 196.317 24.2598 195.81 24.4941C195.312 24.7285 194.887 25.0459 194.535 25.4463C194.184 25.8369 193.896 26.2861 193.671 26.7939C193.456 27.292 193.295 27.8096 193.188 28.3467V32.1406C193.383 32.8242 193.656 33.4688 194.008 34.0742C194.359 34.6699 194.828 35.1533 195.414 35.5244C196 35.8857 196.737 36.0664 197.626 36.0664C198.358 36.0664 198.988 35.915 199.516 35.6123C200.053 35.2998 200.492 34.875 200.834 34.3379C201.186 33.8008 201.444 33.1855 201.61 32.4922C201.776 31.7891 201.859 31.042 201.859 30.251ZM217.387 35.29V27.1309C217.387 26.5059 217.26 25.9639 217.006 25.5049C216.762 25.0361 216.391 24.6748 215.893 24.4209C215.395 24.167 214.779 24.04 214.047 24.04C213.363 24.04 212.763 24.1572 212.245 24.3916C211.737 24.626 211.337 24.9336 211.044 25.3145C210.761 25.6953 210.619 26.1055 210.619 26.5449H207.909C207.909 25.9785 208.056 25.417 208.349 24.8604C208.642 24.3037 209.062 23.8008 209.608 23.3516C210.165 22.8926 210.829 22.5312 211.601 22.2676C212.382 21.9941 213.251 21.8574 214.208 21.8574C215.36 21.8574 216.376 22.0527 217.255 22.4434C218.144 22.834 218.837 23.4248 219.335 24.2158C219.843 24.9971 220.097 25.9785 220.097 27.1602V34.543C220.097 35.0703 220.141 35.6318 220.229 36.2275C220.326 36.8232 220.468 37.3359 220.653 37.7656V38H217.826C217.689 37.6875 217.582 37.2725 217.504 36.7549C217.426 36.2275 217.387 35.7393 217.387 35.29ZM217.855 28.3906L217.885 30.2949H215.146C214.374 30.2949 213.686 30.3584 213.08 30.4854C212.475 30.6025 211.967 30.7832 211.557 31.0273C211.146 31.2715 210.834 31.5791 210.619 31.9502C210.404 32.3115 210.297 32.7363 210.297 33.2246C210.297 33.7227 210.409 34.1768 210.634 34.5869C210.858 34.9971 211.195 35.3242 211.645 35.5684C212.104 35.8027 212.665 35.9199 213.329 35.9199C214.159 35.9199 214.892 35.7441 215.526 35.3926C216.161 35.041 216.664 34.6113 217.035 34.1035C217.416 33.5957 217.621 33.1025 217.65 32.624L218.808 33.9277C218.739 34.3379 218.554 34.792 218.251 35.29C217.948 35.7881 217.543 36.2666 217.035 36.7256C216.537 37.1748 215.941 37.5508 215.248 37.8535C214.564 38.1465 213.793 38.293 212.934 38.293C211.859 38.293 210.917 38.083 210.106 37.6631C209.306 37.2432 208.681 36.6816 208.231 35.9785C207.792 35.2656 207.572 34.4697 207.572 33.5908C207.572 32.7412 207.738 31.9941 208.07 31.3496C208.402 30.6953 208.881 30.1533 209.506 29.7236C210.131 29.2842 210.883 28.9521 211.762 28.7275C212.641 28.5029 213.622 28.3906 214.706 28.3906H217.855ZM230.585 22.1504V38H227.86V22.1504H230.585ZM235.902 22.1504V24.3477H222.646V22.1504H235.902ZM237.235 30.251V29.9141C237.235 28.7715 237.401 27.7119 237.733 26.7354C238.065 25.749 238.544 24.8945 239.169 24.1719C239.794 23.4395 240.551 22.873 241.439 22.4727C242.328 22.0625 243.324 21.8574 244.428 21.8574C245.541 21.8574 246.542 22.0625 247.431 22.4727C248.329 22.873 249.091 23.4395 249.716 24.1719C250.351 24.8945 250.834 25.749 251.166 26.7354C251.498 27.7119 251.664 28.7715 251.664 29.9141V30.251C251.664 31.3936 251.498 32.4531 251.166 33.4297C250.834 34.4062 250.351 35.2607 249.716 35.9932C249.091 36.7158 248.334 37.2822 247.445 37.6924C246.566 38.0928 245.57 38.293 244.457 38.293C243.344 38.293 242.343 38.0928 241.454 37.6924C240.565 37.2822 239.804 36.7158 239.169 35.9932C238.544 35.2607 238.065 34.4062 237.733 33.4297C237.401 32.4531 237.235 31.3936 237.235 30.251ZM239.945 29.9141V30.251C239.945 31.042 240.038 31.7891 240.224 32.4922C240.409 33.1855 240.688 33.8008 241.059 34.3379C241.439 34.875 241.913 35.2998 242.479 35.6123C243.046 35.915 243.705 36.0664 244.457 36.0664C245.199 36.0664 245.849 35.915 246.405 35.6123C246.972 35.2998 247.44 34.875 247.812 34.3379C248.183 33.8008 248.461 33.1855 248.646 32.4922C248.842 31.7891 248.939 31.042 248.939 30.251V29.9141C248.939 29.1328 248.842 28.3955 248.646 27.7021C248.461 26.999 248.178 26.3789 247.797 25.8418C247.426 25.2949 246.957 24.8652 246.391 24.5527C245.834 24.2402 245.18 24.084 244.428 24.084C243.686 24.084 243.031 24.2402 242.465 24.5527C241.908 24.8652 241.439 25.2949 241.059 25.8418C240.688 26.3789 240.409 26.999 240.224 27.7021C240.038 28.3955 239.945 29.1328 239.945 29.9141ZM257.772 25.1973V44.0938H255.048V22.1504H257.538L257.772 25.1973ZM268.451 29.9434V30.251C268.451 31.4033 268.314 32.4727 268.041 33.459C267.768 34.4355 267.367 35.2852 266.84 36.0078C266.322 36.7305 265.683 37.292 264.921 37.6924C264.159 38.0928 263.285 38.293 262.299 38.293C261.293 38.293 260.404 38.127 259.633 37.7949C258.861 37.4629 258.207 36.9795 257.67 36.3447C257.133 35.71 256.703 34.9482 256.381 34.0596C256.068 33.1709 255.854 32.1699 255.736 31.0566V29.416C255.854 28.2441 256.073 27.1943 256.396 26.2666C256.718 25.3389 257.143 24.5479 257.67 23.8936C258.207 23.2295 258.856 22.7266 259.618 22.3848C260.38 22.0332 261.259 21.8574 262.255 21.8574C263.251 21.8574 264.135 22.0527 264.906 22.4434C265.678 22.8242 266.327 23.3711 266.854 24.084C267.382 24.7969 267.777 25.6514 268.041 26.6475C268.314 27.6338 268.451 28.7324 268.451 29.9434ZM265.727 30.251V29.9434C265.727 29.1523 265.644 28.4102 265.478 27.7168C265.312 27.0137 265.053 26.3984 264.701 25.8711C264.359 25.334 263.92 24.9141 263.383 24.6113C262.846 24.2988 262.206 24.1426 261.464 24.1426C260.78 24.1426 260.185 24.2598 259.677 24.4941C259.179 24.7285 258.754 25.0459 258.402 25.4463C258.051 25.8369 257.763 26.2861 257.538 26.7939C257.323 27.292 257.162 27.8096 257.055 28.3467V32.1406C257.25 32.8242 257.523 33.4688 257.875 34.0742C258.227 34.6699 258.695 35.1533 259.281 35.5244C259.867 35.8857 260.604 36.0664 261.493 36.0664C262.226 36.0664 262.855 35.915 263.383 35.6123C263.92 35.2998 264.359 34.875 264.701 34.3379C265.053 33.8008 265.312 33.1855 265.478 32.4922C265.644 31.7891 265.727 31.042 265.727 30.251Z" fill="#201B10"/>
<rect x="10" y="49" width="260" height="2" rx="1" fill="#201B10"/>
<defs>
<clipPath id="clip0_12_580">
<rect width="35" height="35" fill="white" transform="translate(10 10)"/>
</clipPath>
</defs>
</svg>
