<svg width="190" height="61" viewBox="0 0 190 61" fill="none" xmlns="http://www.w3.org/2000/svg">
<path d="M27.5007 20.9966V27.4999L31.5653 31.5644" stroke="#201B10" stroke-width="2.43872" stroke-linecap="round" stroke-linejoin="round"/>
<path d="M18.0818 37.9792C23.4847 42.8533 31.6735 42.8926 37.0232 38.0827L37.6873 38.7468C31.9656 43.9291 23.1827 43.8776 17.4177 38.6423L18.0818 37.9792ZM38.6433 17.4167C43.8784 23.1814 43.9285 31.9645 38.7478 37.6862L38.0837 37.0222C42.8936 31.6722 42.8547 23.4826 37.9802 18.0798L38.6433 17.4167ZM13.3865 26.1677C13.2241 28.1104 13.4609 30.0687 14.0867 31.9206C14.7122 33.772 15.7115 35.4719 17.0183 36.9177L16.3552 37.5807C14.946 36.0316 13.8689 34.2067 13.197 32.2175C12.5254 30.2289 12.2748 28.1254 12.4558 26.0397L13.3865 26.1677ZM18.4343 18.7077L18.4294 19.6462L17.3455 19.6413L17.9636 19.0231L18.2791 18.7067L18.4343 18.7077ZM17.3142 16.2526C23.0354 11.071 31.8179 11.1221 37.5828 16.3561L36.9197 17.0192C31.5168 12.1459 23.3267 12.1062 17.9773 16.9157L17.3142 16.2526ZM15.4958 15.9216L14.5623 16.8552L14.5564 15.7741L15.4949 15.7682L15.4958 15.9216Z" stroke="#201B10" stroke-width="1.5"/>
<path d="M66.5791 33.1074L77.082 16.6719H79.9092V38H77.082V21.5498L66.5791 38H63.7666V16.6719H66.5791V33.1074ZM90.9834 36.0664C91.6279 36.0664 92.2236 35.9346 92.7705 35.6709C93.3174 35.4072 93.7666 35.0459 94.1182 34.5869C94.4697 34.1182 94.6699 33.5859 94.7188 32.9902H97.2969C97.248 33.9277 96.9307 34.8018 96.3447 35.6123C95.7686 36.4131 95.0117 37.0625 94.0742 37.5605C93.1367 38.0488 92.1064 38.293 90.9834 38.293C89.792 38.293 88.752 38.083 87.8633 37.6631C86.9844 37.2432 86.252 36.667 85.666 35.9346C85.0898 35.2021 84.6553 34.3623 84.3623 33.415C84.0791 32.458 83.9375 31.4473 83.9375 30.3828V29.7676C83.9375 28.7031 84.0791 27.6973 84.3623 26.75C84.6553 25.793 85.0898 24.9482 85.666 24.2158C86.252 23.4834 86.9844 22.9072 87.8633 22.4873C88.752 22.0674 89.792 21.8574 90.9834 21.8574C92.2236 21.8574 93.3076 22.1113 94.2354 22.6191C95.1631 23.1172 95.8906 23.8008 96.418 24.6699C96.9551 25.5293 97.248 26.5059 97.2969 27.5996H94.7188C94.6699 26.9453 94.4844 26.3545 94.1621 25.8271C93.8496 25.2998 93.4199 24.8799 92.873 24.5674C92.3359 24.2451 91.7061 24.084 90.9834 24.084C90.1533 24.084 89.4551 24.25 88.8887 24.582C88.332 24.9043 87.8877 25.3438 87.5557 25.9004C87.2334 26.4473 86.999 27.0576 86.8525 27.7314C86.7158 28.3955 86.6475 29.0742 86.6475 29.7676V30.3828C86.6475 31.0762 86.7158 31.7598 86.8525 32.4336C86.9893 33.1074 87.2188 33.7178 87.541 34.2646C87.873 34.8115 88.3174 35.251 88.874 35.583C89.4404 35.9053 90.1436 36.0664 90.9834 36.0664ZM106.804 22.1504V38H104.079V22.1504H106.804ZM112.121 22.1504V24.3477H98.8643V22.1504H112.121ZM113.454 30.251V29.9141C113.454 28.7715 113.62 27.7119 113.952 26.7354C114.284 25.749 114.763 24.8945 115.388 24.1719C116.013 23.4395 116.77 22.873 117.658 22.4727C118.547 22.0625 119.543 21.8574 120.646 21.8574C121.76 21.8574 122.761 22.0625 123.649 22.4727C124.548 22.873 125.31 23.4395 125.935 24.1719C126.569 24.8945 127.053 25.749 127.385 26.7354C127.717 27.7119 127.883 28.7715 127.883 29.9141V30.251C127.883 31.3936 127.717 32.4531 127.385 33.4297C127.053 34.4062 126.569 35.2607 125.935 35.9932C125.31 36.7158 124.553 37.2822 123.664 37.6924C122.785 38.0928 121.789 38.293 120.676 38.293C119.562 38.293 118.562 38.0928 117.673 37.6924C116.784 37.2822 116.022 36.7158 115.388 35.9932C114.763 35.2607 114.284 34.4062 113.952 33.4297C113.62 32.4531 113.454 31.3936 113.454 30.251ZM116.164 29.9141V30.251C116.164 31.042 116.257 31.7891 116.442 32.4922C116.628 33.1855 116.906 33.8008 117.277 34.3379C117.658 34.875 118.132 35.2998 118.698 35.6123C119.265 35.915 119.924 36.0664 120.676 36.0664C121.418 36.0664 122.067 35.915 122.624 35.6123C123.19 35.2998 123.659 34.875 124.03 34.3379C124.401 33.8008 124.68 33.1855 124.865 32.4922C125.061 31.7891 125.158 31.042 125.158 30.251V29.9141C125.158 29.1328 125.061 28.3955 124.865 27.7021C124.68 26.999 124.396 26.3789 124.016 25.8418C123.645 25.2949 123.176 24.8652 122.609 24.5527C122.053 24.2402 121.398 24.084 120.646 24.084C119.904 24.084 119.25 24.2402 118.684 24.5527C118.127 24.8652 117.658 25.2949 117.277 25.8418C116.906 26.3789 116.628 26.999 116.442 27.7021C116.257 28.3955 116.164 29.1328 116.164 29.9141ZM133.991 25.1973V44.0938H131.267V22.1504H133.757L133.991 25.1973ZM144.67 29.9434V30.251C144.67 31.4033 144.533 32.4727 144.26 33.459C143.986 34.4355 143.586 35.2852 143.059 36.0078C142.541 36.7305 141.901 37.292 141.14 37.6924C140.378 38.0928 139.504 38.293 138.518 38.293C137.512 38.293 136.623 38.127 135.852 37.7949C135.08 37.4629 134.426 36.9795 133.889 36.3447C133.352 35.71 132.922 34.9482 132.6 34.0596C132.287 33.1709 132.072 32.1699 131.955 31.0566V29.416C132.072 28.2441 132.292 27.1943 132.614 26.2666C132.937 25.3389 133.361 24.5479 133.889 23.8936C134.426 23.2295 135.075 22.7266 135.837 22.3848C136.599 22.0332 137.478 21.8574 138.474 21.8574C139.47 21.8574 140.354 22.0527 141.125 22.4434C141.896 22.8242 142.546 23.3711 143.073 24.084C143.601 24.7969 143.996 25.6514 144.26 26.6475C144.533 27.6338 144.67 28.7324 144.67 29.9434ZM141.945 30.251V29.9434C141.945 29.1523 141.862 28.4102 141.696 27.7168C141.53 27.0137 141.271 26.3984 140.92 25.8711C140.578 25.334 140.139 24.9141 139.602 24.6113C139.064 24.2988 138.425 24.1426 137.683 24.1426C136.999 24.1426 136.403 24.2598 135.896 24.4941C135.397 24.7285 134.973 25.0459 134.621 25.4463C134.27 25.8369 133.981 26.2861 133.757 26.7939C133.542 27.292 133.381 27.8096 133.273 28.3467V32.1406C133.469 32.8242 133.742 33.4688 134.094 34.0742C134.445 34.6699 134.914 35.1533 135.5 35.5244C136.086 35.8857 136.823 36.0664 137.712 36.0664C138.444 36.0664 139.074 35.915 139.602 35.6123C140.139 35.2998 140.578 34.875 140.92 34.3379C141.271 33.8008 141.53 33.1855 141.696 32.4922C141.862 31.7891 141.945 31.042 141.945 30.251ZM151.057 33.708L158.366 22.1504H161.091V38H158.366V26.4424L151.057 38H148.361V22.1504H151.057V33.708ZM168.649 30.4414H171.579L166.994 38H164.064L168.649 30.4414ZM170.92 22.1504H177.541V38H174.831V24.3477H170.92C170.148 24.3477 169.519 24.4795 169.03 24.7432C168.542 24.9971 168.186 25.3291 167.961 25.7393C167.736 26.1494 167.624 26.5742 167.624 27.0137C167.624 27.4434 167.727 27.8584 167.932 28.2588C168.137 28.6494 168.459 28.9717 168.898 29.2256C169.338 29.4795 169.904 29.6064 170.598 29.6064H175.563V31.833H170.598C169.689 31.833 168.884 31.7109 168.181 31.4668C167.478 31.2227 166.882 30.8857 166.394 30.4561C165.905 30.0166 165.534 29.5039 165.28 28.918C165.026 28.3223 164.899 27.6777 164.899 26.9844C164.899 26.291 165.031 25.6514 165.295 25.0654C165.568 24.4795 165.959 23.9668 166.467 23.5273C166.984 23.0879 167.614 22.751 168.356 22.5166C169.108 22.2725 169.963 22.1504 170.92 22.1504Z" fill="#201B10"/>
<rect x="10" y="49" width="170" height="2" rx="1" fill="#201B10"/>
</svg>
