<svg width="190" height="62" viewBox="0 0 190 62" fill="none" xmlns="http://www.w3.org/2000/svg">
<path d="M27.5005 24.6234V31.1266L31.565 35.1911" stroke="#201B10" stroke-width="2.43872" stroke-linecap="round" stroke-linejoin="round"/>
<path d="M18.0817 41.6059C23.4846 46.48 31.6733 46.5193 37.0231 41.7094L37.6871 42.3735C31.9655 47.5558 23.1825 47.5043 17.4176 42.269L18.0817 41.6059ZM38.6432 21.0434C43.8783 26.8081 43.9284 35.5912 38.7477 41.3129L38.0836 40.6489C42.8935 35.299 42.8546 27.1093 37.9801 21.7065L38.6432 21.0434ZM13.3864 29.7944C13.224 31.7371 13.4608 33.6954 14.0865 35.5473C14.7121 37.3987 15.7113 39.0986 17.0182 40.5444L16.3551 41.2075C14.9459 39.6583 13.8688 37.8334 13.1969 35.8442C12.5253 33.8556 12.2747 31.7521 12.4557 29.6664L13.3864 29.7944ZM18.4342 22.3344L18.4293 23.2729L17.3453 23.268L17.9635 22.6498L18.2789 22.3334L18.4342 22.3344ZM17.3141 19.8793C23.0352 14.6977 31.8178 14.7488 37.5826 19.9828L36.9196 20.6459C31.5167 15.7726 23.3266 15.7329 17.9772 20.5424L17.3141 19.8793ZM15.4957 19.5483L14.5621 20.4819L14.5563 19.4008L15.4948 19.395L15.4957 19.5483Z" stroke="#201B10" stroke-width="1.5"/>
<path d="M66.5791 36.7341L77.082 20.2986H79.9092V41.6267H77.082V25.1765L66.5791 41.6267H63.7666V20.2986H66.5791V36.7341ZM90.9834 39.6931C91.6279 39.6931 92.2236 39.5613 92.7705 39.2976C93.3174 39.0339 93.7666 38.6726 94.1182 38.2136C94.4697 37.7449 94.6699 37.2126 94.7188 36.6169H97.2969C97.248 37.5544 96.9307 38.4285 96.3447 39.239C95.7686 40.0398 95.0117 40.6892 94.0742 41.1873C93.1367 41.6755 92.1064 41.9197 90.9834 41.9197C89.792 41.9197 88.752 41.7097 87.8633 41.2898C86.9844 40.8699 86.252 40.2937 85.666 39.5613C85.0898 38.8289 84.6553 37.989 84.3623 37.0417C84.0791 36.0847 83.9375 35.074 83.9375 34.0095V33.3943C83.9375 32.3298 84.0791 31.324 84.3623 30.3767C84.6553 29.4197 85.0898 28.575 85.666 27.8425C86.252 27.1101 86.9844 26.5339 87.8633 26.114C88.752 25.6941 89.792 25.4841 90.9834 25.4841C92.2236 25.4841 93.3076 25.738 94.2354 26.2458C95.1631 26.7439 95.8906 27.4275 96.418 28.2966C96.9551 29.156 97.248 30.1326 97.2969 31.2263H94.7188C94.6699 30.572 94.4844 29.9812 94.1621 29.4539C93.8496 28.9265 93.4199 28.5066 92.873 28.1941C92.3359 27.8718 91.7061 27.7107 90.9834 27.7107C90.1533 27.7107 89.4551 27.8767 88.8887 28.2087C88.332 28.531 87.8877 28.9705 87.5557 29.5271C87.2334 30.074 86.999 30.6843 86.8525 31.3582C86.7158 32.0222 86.6475 32.7009 86.6475 33.3943V34.0095C86.6475 34.7029 86.7158 35.3865 86.8525 36.0603C86.9893 36.7341 87.2188 37.3445 87.541 37.8914C87.873 38.4382 88.3174 38.8777 88.874 39.2097C89.4404 39.532 90.1436 39.6931 90.9834 39.6931ZM106.804 25.7771V41.6267H104.079V25.7771H106.804ZM112.121 25.7771V27.9744H98.8643V25.7771H112.121ZM113.454 33.8777V33.5408C113.454 32.3982 113.62 31.3386 113.952 30.3621C114.284 29.3757 114.763 28.5212 115.388 27.7986C116.013 27.0662 116.77 26.4998 117.658 26.0994C118.547 25.6892 119.543 25.4841 120.646 25.4841C121.76 25.4841 122.761 25.6892 123.649 26.0994C124.548 26.4998 125.31 27.0662 125.935 27.7986C126.569 28.5212 127.053 29.3757 127.385 30.3621C127.717 31.3386 127.883 32.3982 127.883 33.5408V33.8777C127.883 35.0203 127.717 36.0798 127.385 37.0564C127.053 38.033 126.569 38.8875 125.935 39.6199C125.31 40.3425 124.553 40.9089 123.664 41.3191C122.785 41.7195 121.789 41.9197 120.676 41.9197C119.562 41.9197 118.562 41.7195 117.673 41.3191C116.784 40.9089 116.022 40.3425 115.388 39.6199C114.763 38.8875 114.284 38.033 113.952 37.0564C113.62 36.0798 113.454 35.0203 113.454 33.8777ZM116.164 33.5408V33.8777C116.164 34.6687 116.257 35.4158 116.442 36.1189C116.628 36.8123 116.906 37.4275 117.277 37.9646C117.658 38.5017 118.132 38.9265 118.698 39.239C119.265 39.5417 119.924 39.6931 120.676 39.6931C121.418 39.6931 122.067 39.5417 122.624 39.239C123.19 38.9265 123.659 38.5017 124.03 37.9646C124.401 37.4275 124.68 36.8123 124.865 36.1189C125.061 35.4158 125.158 34.6687 125.158 33.8777V33.5408C125.158 32.7595 125.061 32.0222 124.865 31.3289C124.68 30.6257 124.396 30.0056 124.016 29.4685C123.645 28.9216 123.176 28.4919 122.609 28.1794C122.053 27.8669 121.398 27.7107 120.646 27.7107C119.904 27.7107 119.25 27.8669 118.684 28.1794C118.127 28.4919 117.658 28.9216 117.277 29.4685C116.906 30.0056 116.628 30.6257 116.442 31.3289C116.257 32.0222 116.164 32.7595 116.164 33.5408ZM133.991 28.824V47.7205H131.267V25.7771H133.757L133.991 28.824ZM144.67 33.5701V33.8777C144.67 35.03 144.533 36.0994 144.26 37.0857C143.986 38.0623 143.586 38.9119 143.059 39.6345C142.541 40.3572 141.901 40.9187 141.14 41.3191C140.378 41.7195 139.504 41.9197 138.518 41.9197C137.512 41.9197 136.623 41.7537 135.852 41.4216C135.08 41.0896 134.426 40.6062 133.889 39.9714C133.352 39.3367 132.922 38.575 132.6 37.6863C132.287 36.7976 132.072 35.7966 131.955 34.6833V33.0427C132.072 31.8708 132.292 30.821 132.614 29.8933C132.937 28.9656 133.361 28.1746 133.889 27.5203C134.426 26.8562 135.075 26.3533 135.837 26.0115C136.599 25.6599 137.478 25.4841 138.474 25.4841C139.47 25.4841 140.354 25.6794 141.125 26.0701C141.896 26.4509 142.546 26.9978 143.073 27.7107C143.601 28.4236 143.996 29.2781 144.26 30.2742C144.533 31.2605 144.67 32.3591 144.67 33.5701ZM141.945 33.8777V33.5701C141.945 32.7791 141.862 32.0369 141.696 31.3435C141.53 30.6404 141.271 30.0251 140.92 29.4978C140.578 28.9607 140.139 28.5408 139.602 28.238C139.064 27.9255 138.425 27.7693 137.683 27.7693C136.999 27.7693 136.403 27.8865 135.896 28.1208C135.397 28.3552 134.973 28.6726 134.621 29.073C134.27 29.4636 133.981 29.9128 133.757 30.4207C133.542 30.9187 133.381 31.4363 133.273 31.9734V35.7673C133.469 36.4509 133.742 37.0955 134.094 37.7009C134.445 38.2966 134.914 38.78 135.5 39.1511C136.086 39.5125 136.823 39.6931 137.712 39.6931C138.444 39.6931 139.074 39.5417 139.602 39.239C140.139 38.9265 140.578 38.5017 140.92 37.9646C141.271 37.4275 141.53 36.8123 141.696 36.1189C141.862 35.4158 141.945 34.6687 141.945 33.8777ZM151.057 37.3347L158.366 25.7771H161.091V41.6267H158.366V30.0691L151.057 41.6267H148.361V25.7771H151.057V37.3347ZM168.649 34.0681H171.579L166.994 41.6267H164.064L168.649 34.0681ZM170.92 25.7771H177.541V41.6267H174.831V27.9744H170.92C170.148 27.9744 169.519 28.1062 169.03 28.3699C168.542 28.6238 168.186 28.9558 167.961 29.366C167.736 29.7761 167.624 30.2009 167.624 30.6404C167.624 31.0701 167.727 31.4851 167.932 31.8855C168.137 32.2761 168.459 32.5984 168.898 32.8523C169.338 33.1062 169.904 33.2332 170.598 33.2332H175.563V35.4597H170.598C169.689 35.4597 168.884 35.3376 168.181 35.0935C167.478 34.8494 166.882 34.5125 166.394 34.0828C165.905 33.6433 165.534 33.1306 165.28 32.5447C165.026 31.949 164.899 31.3044 164.899 30.6111C164.899 29.9177 165.031 29.2781 165.295 28.6921C165.568 28.1062 165.959 27.5935 166.467 27.1541C166.984 26.7146 167.614 26.3777 168.356 26.1433C169.108 25.8992 169.963 25.7771 170.92 25.7771Z" fill="#201B10"/>
</svg>
