<svg width="50" height="55" viewBox="0 0 50 55" fill="none" xmlns="http://www.w3.org/2000/svg">
  <path fill-rule="evenodd" clip-rule="evenodd" d="M25.0002 5C19.6959 5 14.6088 7.10714 10.8581 10.8579C7.10738 14.6086 5.00024 19.6957 5.00024 25C5.00024 30.3043 7.10738 35.3914 10.8581 39.1421C14.6088 42.8929 19.6959 45 25.0002 45C30.3046 45 35.3917 42.8929 39.1424 39.1421C42.8931 35.3914 45.0002 30.3043 45.0002 25C45.0002 19.6957 42.8931 14.6086 39.1424 10.8579C35.3917 7.10714 30.3046 5 25.0002 5ZM0.000244141 25C0.000244141 11.1925 11.1927 0 25.0002 0C38.8077 0 50.0002 11.1925 50.0002 25C50.0002 38.8075 38.8077 50 25.0002 50C11.1927 50 0.000244141 38.8075 0.000244141 25Z" fill="white"/>
  <path fill-rule="evenodd" clip-rule="evenodd" d="M24.9999 5.00003C19.8436 4.98966 14.8844 6.98119 11.1674 10.555C10.9304 10.7822 10.6509 10.9605 10.345 11.0797C10.0391 11.1989 9.71266 11.2566 9.38441 11.2497C9.05615 11.2427 8.73248 11.1711 8.43188 11.0391C8.13128 10.907 7.85963 10.7171 7.63244 10.48C7.40525 10.243 7.22698 9.96353 7.1078 9.6576C6.98861 9.35167 6.93085 9.02526 6.93782 8.697C6.94478 8.36875 7.01633 8.04508 7.14839 7.74447C7.28044 7.44387 7.47041 7.17222 7.70744 6.94503C12.3554 2.47906 18.5541 -0.0104686 24.9999 3.30904e-05C25.663 3.30904e-05 26.2989 0.263425 26.7677 0.732266C27.2365 1.20111 27.4999 1.83699 27.4999 2.50003C27.4999 3.16307 27.2365 3.79896 26.7677 4.2678C26.2989 4.73664 25.663 5.00003 24.9999 5.00003Z" fill="#2AE881"/>
</svg>
